<?xml version="1.0" encoding="utf-8"?><!DOCTYPE svg PUBLIC "-//W3C//DTD SVG 1.1//EN" "http://www.w3.org/Graphics/SVG/1.1/DTD/svg11.dtd"><svg xmlns="http://www.w3.org/2000/svg" xml:space="preserve" xmlns:xlink="http://www.w3.org/1999/xlink" width="888" height="888" viewBox="0 0 888 888">
<rect width="888" height="888" fill="#152249" x="0" y="0" />
<g fill="#ffffff">
<g transform="translate(240,48) scale(4.24)"><rect width="6" height="6"/></g>
<g transform="translate(264,48) scale(4.24)"><rect width="6" height="6"/></g>
<g transform="translate(288,48) scale(4.24)"><rect width="6" height="6"/></g>
<g transform="translate(336,48) scale(4.24)"><rect width="6" height="6"/></g>
<g transform="translate(360,48) scale(4.24)"><rect width="6" height="6"/></g>
<g transform="translate(408,48) scale(4.24)"><rect width="6" height="6"/></g>
<g transform="translate(432,48) scale(4.24)"><rect width="6" height="6"/></g>
<g transform="translate(528,48) scale(4.24)"><rect width="6" height="6"/></g>
<g transform="translate(552,48) scale(4.24)"><rect width="6" height="6"/></g>
<g transform="translate(600,48) scale(4.24)"><rect width="6" height="6"/></g>
<g transform="translate(624,48) scale(4.24)"><rect width="6" height="6"/></g>
<g transform="translate(240,72) scale(4.24)"><rect width="6" height="6"/></g>
<g transform="translate(312,72) scale(4.24)"><rect width="6" height="6"/></g>
<g transform="translate(336,72) scale(4.24)"><rect width="6" height="6"/></g>
<g transform="translate(360,72) scale(4.24)"><rect width="6" height="6"/></g>
<g transform="translate(432,72) scale(4.24)"><rect width="6" height="6"/></g>
<g transform="translate(504,72) scale(4.24)"><rect width="6" height="6"/></g>
<g transform="translate(624,72) scale(4.24)"><rect width="6" height="6"/></g>
<g transform="translate(240,96) scale(4.24)"><rect width="6" height="6"/></g>
<g transform="translate(312,96) scale(4.24)"><rect width="6" height="6"/></g>
<g transform="translate(360,96) scale(4.24)"><rect width="6" height="6"/></g>
<g transform="translate(408,96) scale(4.24)"><rect width="6" height="6"/></g>
<g transform="translate(528,96) scale(4.24)"><rect width="6" height="6"/></g>
<g transform="translate(552,96) scale(4.24)"><rect width="6" height="6"/></g>
<g transform="translate(576,96) scale(4.24)"><rect width="6" height="6"/></g>
<g transform="translate(600,96) scale(4.24)"><rect width="6" height="6"/></g>
<g transform="translate(624,96) scale(4.24)"><rect width="6" height="6"/></g>
<g transform="translate(264,120) scale(4.24)"><rect width="6" height="6"/></g>
<g transform="translate(360,120) scale(4.24)"><rect width="6" height="6"/></g>
<g transform="translate(384,120) scale(4.24)"><rect width="6" height="6"/></g>
<g transform="translate(504,120) scale(4.24)"><rect width="6" height="6"/></g>
<g transform="translate(600,120) scale(4.24)"><rect width="6" height="6"/></g>
<g transform="translate(624,120) scale(4.24)"><rect width="6" height="6"/></g>
<g transform="translate(312,144) scale(4.24)"><rect width="6" height="6"/></g>
<g transform="translate(336,144) scale(4.24)"><rect width="6" height="6"/></g>
<g transform="translate(384,144) scale(4.24)"><rect width="6" height="6"/></g>
<g transform="translate(432,144) scale(4.24)"><rect width="6" height="6"/></g>
<g transform="translate(456,144) scale(4.24)"><rect width="6" height="6"/></g>
<g transform="translate(504,144) scale(4.24)"><rect width="6" height="6"/></g>
<g transform="translate(552,144) scale(4.24)"><rect width="6" height="6"/></g>
<g transform="translate(576,144) scale(4.24)"><rect width="6" height="6"/></g>
<g transform="translate(600,144) scale(4.24)"><rect width="6" height="6"/></g>
<g transform="translate(624,144) scale(4.24)"><rect width="6" height="6"/></g>
<g transform="translate(240,168) scale(4.24)"><rect width="6" height="6"/></g>
<g transform="translate(288,168) scale(4.24)"><rect width="6" height="6"/></g>
<g transform="translate(312,168) scale(4.24)"><rect width="6" height="6"/></g>
<g transform="translate(336,168) scale(4.24)"><rect width="6" height="6"/></g>
<g transform="translate(384,168) scale(4.24)"><rect width="6" height="6"/></g>
<g transform="translate(480,168) scale(4.24)"><rect width="6" height="6"/></g>
<g transform="translate(504,168) scale(4.24)"><rect width="6" height="6"/></g>
<g transform="translate(528,168) scale(4.24)"><rect width="6" height="6"/></g>
<g transform="translate(600,168) scale(4.24)"><rect width="6" height="6"/></g>
<g transform="translate(240,192) scale(4.24)"><rect width="6" height="6"/></g>
<g transform="translate(288,192) scale(4.24)"><rect width="6" height="6"/></g>
<g transform="translate(336,192) scale(4.24)"><rect width="6" height="6"/></g>
<g transform="translate(384,192) scale(4.24)"><rect width="6" height="6"/></g>
<g transform="translate(432,192) scale(4.24)"><rect width="6" height="6"/></g>
<g transform="translate(480,192) scale(4.24)"><rect width="6" height="6"/></g>
<g transform="translate(528,192) scale(4.24)"><rect width="6" height="6"/></g>
<g transform="translate(576,192) scale(4.24)"><rect width="6" height="6"/></g>
<g transform="translate(624,192) scale(4.24)"><rect width="6" height="6"/></g>
<g transform="translate(240,216) scale(4.24)"><rect width="6" height="6"/></g>
<g transform="translate(312,216) scale(4.24)"><rect width="6" height="6"/></g>
<g transform="translate(336,216) scale(4.24)"><rect width="6" height="6"/></g>
<g transform="translate(408,216) scale(4.24)"><rect width="6" height="6"/></g>
<g transform="translate(432,216) scale(4.24)"><rect width="6" height="6"/></g>
<g transform="translate(456,216) scale(4.24)"><rect width="6" height="6"/></g>
<g transform="translate(480,216) scale(4.24)"><rect width="6" height="6"/></g>
<g transform="translate(504,216) scale(4.24)"><rect width="6" height="6"/></g>
<g transform="translate(600,216) scale(4.24)"><rect width="6" height="6"/></g>
<g transform="translate(96,240) scale(4.24)"><rect width="6" height="6"/></g>
<g transform="translate(120,240) scale(4.24)"><rect width="6" height="6"/></g>
<g transform="translate(144,240) scale(4.24)"><rect width="6" height="6"/></g>
<g transform="translate(192,240) scale(4.24)"><rect width="6" height="6"/></g>
<g transform="translate(240,240) scale(4.24)"><rect width="6" height="6"/></g>
<g transform="translate(288,240) scale(4.24)"><rect width="6" height="6"/></g>
<g transform="translate(312,240) scale(4.24)"><rect width="6" height="6"/></g>
<g transform="translate(408,240) scale(4.24)"><rect width="6" height="6"/></g>
<g transform="translate(432,240) scale(4.24)"><rect width="6" height="6"/></g>
<g transform="translate(456,240) scale(4.24)"><rect width="6" height="6"/></g>
<g transform="translate(480,240) scale(4.24)"><rect width="6" height="6"/></g>
<g transform="translate(504,240) scale(4.24)"><rect width="6" height="6"/></g>
<g transform="translate(528,240) scale(4.24)"><rect width="6" height="6"/></g>
<g transform="translate(576,240) scale(4.24)"><rect width="6" height="6"/></g>
<g transform="translate(624,240) scale(4.24)"><rect width="6" height="6"/></g>
<g transform="translate(648,240) scale(4.24)"><rect width="6" height="6"/></g>
<g transform="translate(672,240) scale(4.24)"><rect width="6" height="6"/></g>
<g transform="translate(696,240) scale(4.24)"><rect width="6" height="6"/></g>
<g transform="translate(768,240) scale(4.24)"><rect width="6" height="6"/></g>
<g transform="translate(792,240) scale(4.24)"><rect width="6" height="6"/></g>
<g transform="translate(816,240) scale(4.24)"><rect width="6" height="6"/></g>
<g transform="translate(96,264) scale(4.24)"><rect width="6" height="6"/></g>
<g transform="translate(120,264) scale(4.24)"><rect width="6" height="6"/></g>
<g transform="translate(168,264) scale(4.24)"><rect width="6" height="6"/></g>
<g transform="translate(216,264) scale(4.24)"><rect width="6" height="6"/></g>
<g transform="translate(240,264) scale(4.24)"><rect width="6" height="6"/></g>
<g transform="translate(264,264) scale(4.24)"><rect width="6" height="6"/></g>
<g transform="translate(360,264) scale(4.24)"><rect width="6" height="6"/></g>
<g transform="translate(384,264) scale(4.24)"><rect width="6" height="6"/></g>
<g transform="translate(456,264) scale(4.24)"><rect width="6" height="6"/></g>
<g transform="translate(480,264) scale(4.24)"><rect width="6" height="6"/></g>
<g transform="translate(504,264) scale(4.24)"><rect width="6" height="6"/></g>
<g transform="translate(528,264) scale(4.24)"><rect width="6" height="6"/></g>
<g transform="translate(552,264) scale(4.24)"><rect width="6" height="6"/></g>
<g transform="translate(600,264) scale(4.24)"><rect width="6" height="6"/></g>
<g transform="translate(624,264) scale(4.24)"><rect width="6" height="6"/></g>
<g transform="translate(648,264) scale(4.24)"><rect width="6" height="6"/></g>
<g transform="translate(672,264) scale(4.24)"><rect width="6" height="6"/></g>
<g transform="translate(744,264) scale(4.24)"><rect width="6" height="6"/></g>
<g transform="translate(768,264) scale(4.24)"><rect width="6" height="6"/></g>
<g transform="translate(792,264) scale(4.24)"><rect width="6" height="6"/></g>
<g transform="translate(816,264) scale(4.24)"><rect width="6" height="6"/></g>
<g transform="translate(48,288) scale(4.24)"><rect width="6" height="6"/></g>
<g transform="translate(72,288) scale(4.24)"><rect width="6" height="6"/></g>
<g transform="translate(144,288) scale(4.24)"><rect width="6" height="6"/></g>
<g transform="translate(192,288) scale(4.24)"><rect width="6" height="6"/></g>
<g transform="translate(264,288) scale(4.24)"><rect width="6" height="6"/></g>
<g transform="translate(384,288) scale(4.24)"><rect width="6" height="6"/></g>
<g transform="translate(480,288) scale(4.24)"><rect width="6" height="6"/></g>
<g transform="translate(504,288) scale(4.24)"><rect width="6" height="6"/></g>
<g transform="translate(528,288) scale(4.24)"><rect width="6" height="6"/></g>
<g transform="translate(624,288) scale(4.24)"><rect width="6" height="6"/></g>
<g transform="translate(696,288) scale(4.24)"><rect width="6" height="6"/></g>
<g transform="translate(792,288) scale(4.24)"><rect width="6" height="6"/></g>
<g transform="translate(144,312) scale(4.24)"><rect width="6" height="6"/></g>
<g transform="translate(312,312) scale(4.24)"><rect width="6" height="6"/></g>
<g transform="translate(360,312) scale(4.24)"><rect width="6" height="6"/></g>
<g transform="translate(384,312) scale(4.24)"><rect width="6" height="6"/></g>
<g transform="translate(432,312) scale(4.24)"><rect width="6" height="6"/></g>
<g transform="translate(504,312) scale(4.24)"><rect width="6" height="6"/></g>
<g transform="translate(600,312) scale(4.24)"><rect width="6" height="6"/></g>
<g transform="translate(648,312) scale(4.24)"><rect width="6" height="6"/></g>
<g transform="translate(744,312) scale(4.24)"><rect width="6" height="6"/></g>
<g transform="translate(768,312) scale(4.24)"><rect width="6" height="6"/></g>
<g transform="translate(792,312) scale(4.24)"><rect width="6" height="6"/></g>
<g transform="translate(72,336) scale(4.24)"><rect width="6" height="6"/></g>
<g transform="translate(144,336) scale(4.24)"><rect width="6" height="6"/></g>
<g transform="translate(192,336) scale(4.24)"><rect width="6" height="6"/></g>
<g transform="translate(216,336) scale(4.24)"><rect width="6" height="6"/></g>
<g transform="translate(240,336) scale(4.24)"><rect width="6" height="6"/></g>
<g transform="translate(288,336) scale(4.24)"><rect width="6" height="6"/></g>
<g transform="translate(432,336) scale(4.24)"><rect width="6" height="6"/></g>
<g transform="translate(456,336) scale(4.24)"><rect width="6" height="6"/></g>
<g transform="translate(576,336) scale(4.24)"><rect width="6" height="6"/></g>
<g transform="translate(648,336) scale(4.24)"><rect width="6" height="6"/></g>
<g transform="translate(696,336) scale(4.24)"><rect width="6" height="6"/></g>
<g transform="translate(720,336) scale(4.24)"><rect width="6" height="6"/></g>
<g transform="translate(744,336) scale(4.24)"><rect width="6" height="6"/></g>
<g transform="translate(792,336) scale(4.24)"><rect width="6" height="6"/></g>
<g transform="translate(816,336) scale(4.24)"><rect width="6" height="6"/></g>
<g transform="translate(72,360) scale(4.24)"><rect width="6" height="6"/></g>
<g transform="translate(144,360) scale(4.24)"><rect width="6" height="6"/></g>
<g transform="translate(168,360) scale(4.24)"><rect width="6" height="6"/></g>
<g transform="translate(216,360) scale(4.24)"><rect width="6" height="6"/></g>
<g transform="translate(264,360) scale(4.24)"><rect width="6" height="6"/></g>
<g transform="translate(312,360) scale(4.24)"><rect width="6" height="6"/></g>
<g transform="translate(336,360) scale(4.24)"><rect width="6" height="6"/></g>
<g transform="translate(360,360) scale(4.24)"><rect width="6" height="6"/></g>
<g transform="translate(408,360) scale(4.24)"><rect width="6" height="6"/></g>
<g transform="translate(432,360) scale(4.24)"><rect width="6" height="6"/></g>
<g transform="translate(456,360) scale(4.24)"><rect width="6" height="6"/></g>
<g transform="translate(576,360) scale(4.24)"><rect width="6" height="6"/></g>
<g transform="translate(624,360) scale(4.24)"><rect width="6" height="6"/></g>
<g transform="translate(648,360) scale(4.24)"><rect width="6" height="6"/></g>
<g transform="translate(696,360) scale(4.24)"><rect width="6" height="6"/></g>
<g transform="translate(768,360) scale(4.24)"><rect width="6" height="6"/></g>
<g transform="translate(816,360) scale(4.24)"><rect width="6" height="6"/></g>
<g transform="translate(48,384) scale(4.24)"><rect width="6" height="6"/></g>
<g transform="translate(72,384) scale(4.24)"><rect width="6" height="6"/></g>
<g transform="translate(144,384) scale(4.24)"><rect width="6" height="6"/></g>
<g transform="translate(168,384) scale(4.24)"><rect width="6" height="6"/></g>
<g transform="translate(192,384) scale(4.24)"><rect width="6" height="6"/></g>
<g transform="translate(216,384) scale(4.24)"><rect width="6" height="6"/></g>
<g transform="translate(264,384) scale(4.24)"><rect width="6" height="6"/></g>
<g transform="translate(336,384) scale(4.24)"><rect width="6" height="6"/></g>
<g transform="translate(360,384) scale(4.24)"><rect width="6" height="6"/></g>
<g transform="translate(432,384) scale(4.24)"><rect width="6" height="6"/></g>
<g transform="translate(480,384) scale(4.24)"><rect width="6" height="6"/></g>
<g transform="translate(528,384) scale(4.24)"><rect width="6" height="6"/></g>
<g transform="translate(576,384) scale(4.24)"><rect width="6" height="6"/></g>
<g transform="translate(600,384) scale(4.24)"><rect width="6" height="6"/></g>
<g transform="translate(648,384) scale(4.24)"><rect width="6" height="6"/></g>
<g transform="translate(720,384) scale(4.24)"><rect width="6" height="6"/></g>
<g transform="translate(792,384) scale(4.24)"><rect width="6" height="6"/></g>
<g transform="translate(144,408) scale(4.24)"><rect width="6" height="6"/></g>
<g transform="translate(168,408) scale(4.24)"><rect width="6" height="6"/></g>
<g transform="translate(216,408) scale(4.24)"><rect width="6" height="6"/></g>
<g transform="translate(240,408) scale(4.24)"><rect width="6" height="6"/></g>
<g transform="translate(264,408) scale(4.24)"><rect width="6" height="6"/></g>
<g transform="translate(288,408) scale(4.24)"><rect width="6" height="6"/></g>
<g transform="translate(384,408) scale(4.24)"><rect width="6" height="6"/></g>
<g transform="translate(408,408) scale(4.24)"><rect width="6" height="6"/></g>
<g transform="translate(456,408) scale(4.24)"><rect width="6" height="6"/></g>
<g transform="translate(504,408) scale(4.24)"><rect width="6" height="6"/></g>
<g transform="translate(552,408) scale(4.24)"><rect width="6" height="6"/></g>
<g transform="translate(576,408) scale(4.24)"><rect width="6" height="6"/></g>
<g transform="translate(600,408) scale(4.24)"><rect width="6" height="6"/></g>
<g transform="translate(624,408) scale(4.24)"><rect width="6" height="6"/></g>
<g transform="translate(672,408) scale(4.24)"><rect width="6" height="6"/></g>
<g transform="translate(744,408) scale(4.24)"><rect width="6" height="6"/></g>
<g transform="translate(792,408) scale(4.24)"><rect width="6" height="6"/></g>
<g transform="translate(816,408) scale(4.24)"><rect width="6" height="6"/></g>
<g transform="translate(72,432) scale(4.24)"><rect width="6" height="6"/></g>
<g transform="translate(120,432) scale(4.24)"><rect width="6" height="6"/></g>
<g transform="translate(168,432) scale(4.24)"><rect width="6" height="6"/></g>
<g transform="translate(192,432) scale(4.24)"><rect width="6" height="6"/></g>
<g transform="translate(312,432) scale(4.24)"><rect width="6" height="6"/></g>
<g transform="translate(336,432) scale(4.24)"><rect width="6" height="6"/></g>
<g transform="translate(480,432) scale(4.24)"><rect width="6" height="6"/></g>
<g transform="translate(672,432) scale(4.24)"><rect width="6" height="6"/></g>
<g transform="translate(696,432) scale(4.24)"><rect width="6" height="6"/></g>
<g transform="translate(744,432) scale(4.24)"><rect width="6" height="6"/></g>
<g transform="translate(816,432) scale(4.24)"><rect width="6" height="6"/></g>
<g transform="translate(48,456) scale(4.24)"><rect width="6" height="6"/></g>
<g transform="translate(72,456) scale(4.24)"><rect width="6" height="6"/></g>
<g transform="translate(144,456) scale(4.24)"><rect width="6" height="6"/></g>
<g transform="translate(168,456) scale(4.24)"><rect width="6" height="6"/></g>
<g transform="translate(288,456) scale(4.24)"><rect width="6" height="6"/></g>
<g transform="translate(384,456) scale(4.24)"><rect width="6" height="6"/></g>
<g transform="translate(408,456) scale(4.24)"><rect width="6" height="6"/></g>
<g transform="translate(480,456) scale(4.24)"><rect width="6" height="6"/></g>
<g transform="translate(552,456) scale(4.24)"><rect width="6" height="6"/></g>
<g transform="translate(600,456) scale(4.24)"><rect width="6" height="6"/></g>
<g transform="translate(624,456) scale(4.24)"><rect width="6" height="6"/></g>
<g transform="translate(792,456) scale(4.24)"><rect width="6" height="6"/></g>
<g transform="translate(816,456) scale(4.24)"><rect width="6" height="6"/></g>
<g transform="translate(48,480) scale(4.24)"><rect width="6" height="6"/></g>
<g transform="translate(72,480) scale(4.24)"><rect width="6" height="6"/></g>
<g transform="translate(168,480) scale(4.24)"><rect width="6" height="6"/></g>
<g transform="translate(192,480) scale(4.24)"><rect width="6" height="6"/></g>
<g transform="translate(240,480) scale(4.24)"><rect width="6" height="6"/></g>
<g transform="translate(288,480) scale(4.24)"><rect width="6" height="6"/></g>
<g transform="translate(336,480) scale(4.24)"><rect width="6" height="6"/></g>
<g transform="translate(432,480) scale(4.24)"><rect width="6" height="6"/></g>
<g transform="translate(504,480) scale(4.24)"><rect width="6" height="6"/></g>
<g transform="translate(648,480) scale(4.24)"><rect width="6" height="6"/></g>
<g transform="translate(720,480) scale(4.24)"><rect width="6" height="6"/></g>
<g transform="translate(768,480) scale(4.24)"><rect width="6" height="6"/></g>
<g transform="translate(792,480) scale(4.24)"><rect width="6" height="6"/></g>
<g transform="translate(816,480) scale(4.24)"><rect width="6" height="6"/></g>
<g transform="translate(48,504) scale(4.24)"><rect width="6" height="6"/></g>
<g transform="translate(96,504) scale(4.24)"><rect width="6" height="6"/></g>
<g transform="translate(264,504) scale(4.24)"><rect width="6" height="6"/></g>
<g transform="translate(360,504) scale(4.24)"><rect width="6" height="6"/></g>
<g transform="translate(384,504) scale(4.24)"><rect width="6" height="6"/></g>
<g transform="translate(408,504) scale(4.24)"><rect width="6" height="6"/></g>
<g transform="translate(504,504) scale(4.24)"><rect width="6" height="6"/></g>
<g transform="translate(528,504) scale(4.24)"><rect width="6" height="6"/></g>
<g transform="translate(552,504) scale(4.24)"><rect width="6" height="6"/></g>
<g transform="translate(576,504) scale(4.24)"><rect width="6" height="6"/></g>
<g transform="translate(600,504) scale(4.24)"><rect width="6" height="6"/></g>
<g transform="translate(624,504) scale(4.24)"><rect width="6" height="6"/></g>
<g transform="translate(672,504) scale(4.24)"><rect width="6" height="6"/></g>
<g transform="translate(744,504) scale(4.24)"><rect width="6" height="6"/></g>
<g transform="translate(768,504) scale(4.24)"><rect width="6" height="6"/></g>
<g transform="translate(816,504) scale(4.24)"><rect width="6" height="6"/></g>
<g transform="translate(72,528) scale(4.24)"><rect width="6" height="6"/></g>
<g transform="translate(192,528) scale(4.24)"><rect width="6" height="6"/></g>
<g transform="translate(240,528) scale(4.24)"><rect width="6" height="6"/></g>
<g transform="translate(264,528) scale(4.24)"><rect width="6" height="6"/></g>
<g transform="translate(336,528) scale(4.24)"><rect width="6" height="6"/></g>
<g transform="translate(360,528) scale(4.24)"><rect width="6" height="6"/></g>
<g transform="translate(408,528) scale(4.24)"><rect width="6" height="6"/></g>
<g transform="translate(432,528) scale(4.24)"><rect width="6" height="6"/></g>
<g transform="translate(456,528) scale(4.24)"><rect width="6" height="6"/></g>
<g transform="translate(552,528) scale(4.24)"><rect width="6" height="6"/></g>
<g transform="translate(648,528) scale(4.24)"><rect width="6" height="6"/></g>
<g transform="translate(672,528) scale(4.24)"><rect width="6" height="6"/></g>
<g transform="translate(696,528) scale(4.24)"><rect width="6" height="6"/></g>
<g transform="translate(744,528) scale(4.24)"><rect width="6" height="6"/></g>
<g transform="translate(792,528) scale(4.24)"><rect width="6" height="6"/></g>
<g transform="translate(48,552) scale(4.24)"><rect width="6" height="6"/></g>
<g transform="translate(120,552) scale(4.24)"><rect width="6" height="6"/></g>
<g transform="translate(240,552) scale(4.24)"><rect width="6" height="6"/></g>
<g transform="translate(288,552) scale(4.24)"><rect width="6" height="6"/></g>
<g transform="translate(336,552) scale(4.24)"><rect width="6" height="6"/></g>
<g transform="translate(480,552) scale(4.24)"><rect width="6" height="6"/></g>
<g transform="translate(552,552) scale(4.24)"><rect width="6" height="6"/></g>
<g transform="translate(576,552) scale(4.24)"><rect width="6" height="6"/></g>
<g transform="translate(600,552) scale(4.24)"><rect width="6" height="6"/></g>
<g transform="translate(648,552) scale(4.24)"><rect width="6" height="6"/></g>
<g transform="translate(672,552) scale(4.24)"><rect width="6" height="6"/></g>
<g transform="translate(744,552) scale(4.24)"><rect width="6" height="6"/></g>
<g transform="translate(768,552) scale(4.24)"><rect width="6" height="6"/></g>
<g transform="translate(816,552) scale(4.24)"><rect width="6" height="6"/></g>
<g transform="translate(48,576) scale(4.24)"><rect width="6" height="6"/></g>
<g transform="translate(120,576) scale(4.24)"><rect width="6" height="6"/></g>
<g transform="translate(144,576) scale(4.24)"><rect width="6" height="6"/></g>
<g transform="translate(168,576) scale(4.24)"><rect width="6" height="6"/></g>
<g transform="translate(192,576) scale(4.24)"><rect width="6" height="6"/></g>
<g transform="translate(264,576) scale(4.24)"><rect width="6" height="6"/></g>
<g transform="translate(288,576) scale(4.24)"><rect width="6" height="6"/></g>
<g transform="translate(336,576) scale(4.24)"><rect width="6" height="6"/></g>
<g transform="translate(384,576) scale(4.24)"><rect width="6" height="6"/></g>
<g transform="translate(408,576) scale(4.24)"><rect width="6" height="6"/></g>
<g transform="translate(456,576) scale(4.24)"><rect width="6" height="6"/></g>
<g transform="translate(504,576) scale(4.24)"><rect width="6" height="6"/></g>
<g transform="translate(528,576) scale(4.24)"><rect width="6" height="6"/></g>
<g transform="translate(576,576) scale(4.24)"><rect width="6" height="6"/></g>
<g transform="translate(600,576) scale(4.24)"><rect width="6" height="6"/></g>
<g transform="translate(624,576) scale(4.24)"><rect width="6" height="6"/></g>
<g transform="translate(768,576) scale(4.24)"><rect width="6" height="6"/></g>
<g transform="translate(792,576) scale(4.24)"><rect width="6" height="6"/></g>
<g transform="translate(816,576) scale(4.24)"><rect width="6" height="6"/></g>
<g transform="translate(48,600) scale(4.24)"><rect width="6" height="6"/></g>
<g transform="translate(120,600) scale(4.24)"><rect width="6" height="6"/></g>
<g transform="translate(168,600) scale(4.24)"><rect width="6" height="6"/></g>
<g transform="translate(216,600) scale(4.24)"><rect width="6" height="6"/></g>
<g transform="translate(240,600) scale(4.24)"><rect width="6" height="6"/></g>
<g transform="translate(336,600) scale(4.24)"><rect width="6" height="6"/></g>
<g transform="translate(408,600) scale(4.24)"><rect width="6" height="6"/></g>
<g transform="translate(504,600) scale(4.24)"><rect width="6" height="6"/></g>
<g transform="translate(528,600) scale(4.24)"><rect width="6" height="6"/></g>
<g transform="translate(600,600) scale(4.24)"><rect width="6" height="6"/></g>
<g transform="translate(696,600) scale(4.24)"><rect width="6" height="6"/></g>
<g transform="translate(744,600) scale(4.24)"><rect width="6" height="6"/></g>
<g transform="translate(768,600) scale(4.24)"><rect width="6" height="6"/></g>
<g transform="translate(816,600) scale(4.24)"><rect width="6" height="6"/></g>
<g transform="translate(48,624) scale(4.24)"><rect width="6" height="6"/></g>
<g transform="translate(168,624) scale(4.24)"><rect width="6" height="6"/></g>
<g transform="translate(192,624) scale(4.24)"><rect width="6" height="6"/></g>
<g transform="translate(264,624) scale(4.24)"><rect width="6" height="6"/></g>
<g transform="translate(288,624) scale(4.24)"><rect width="6" height="6"/></g>
<g transform="translate(312,624) scale(4.24)"><rect width="6" height="6"/></g>
<g transform="translate(360,624) scale(4.24)"><rect width="6" height="6"/></g>
<g transform="translate(384,624) scale(4.24)"><rect width="6" height="6"/></g>
<g transform="translate(408,624) scale(4.24)"><rect width="6" height="6"/></g>
<g transform="translate(432,624) scale(4.24)"><rect width="6" height="6"/></g>
<g transform="translate(456,624) scale(4.24)"><rect width="6" height="6"/></g>
<g transform="translate(504,624) scale(4.24)"><rect width="6" height="6"/></g>
<g transform="translate(552,624) scale(4.24)"><rect width="6" height="6"/></g>
<g transform="translate(624,624) scale(4.24)"><rect width="6" height="6"/></g>
<g transform="translate(648,624) scale(4.24)"><rect width="6" height="6"/></g>
<g transform="translate(672,624) scale(4.24)"><rect width="6" height="6"/></g>
<g transform="translate(696,624) scale(4.24)"><rect width="6" height="6"/></g>
<g transform="translate(720,624) scale(4.24)"><rect width="6" height="6"/></g>
<g transform="translate(240,648) scale(4.24)"><rect width="6" height="6"/></g>
<g transform="translate(264,648) scale(4.24)"><rect width="6" height="6"/></g>
<g transform="translate(336,648) scale(4.24)"><rect width="6" height="6"/></g>
<g transform="translate(360,648) scale(4.24)"><rect width="6" height="6"/></g>
<g transform="translate(384,648) scale(4.24)"><rect width="6" height="6"/></g>
<g transform="translate(408,648) scale(4.24)"><rect width="6" height="6"/></g>
<g transform="translate(432,648) scale(4.24)"><rect width="6" height="6"/></g>
<g transform="translate(504,648) scale(4.24)"><rect width="6" height="6"/></g>
<g transform="translate(528,648) scale(4.24)"><rect width="6" height="6"/></g>
<g transform="translate(552,648) scale(4.24)"><rect width="6" height="6"/></g>
<g transform="translate(576,648) scale(4.24)"><rect width="6" height="6"/></g>
<g transform="translate(600,648) scale(4.24)"><rect width="6" height="6"/></g>
<g transform="translate(624,648) scale(4.24)"><rect width="6" height="6"/></g>
<g transform="translate(720,648) scale(4.24)"><rect width="6" height="6"/></g>
<g transform="translate(744,648) scale(4.24)"><rect width="6" height="6"/></g>
<g transform="translate(768,648) scale(4.24)"><rect width="6" height="6"/></g>
<g transform="translate(816,648) scale(4.24)"><rect width="6" height="6"/></g>
<g transform="translate(264,672) scale(4.24)"><rect width="6" height="6"/></g>
<g transform="translate(288,672) scale(4.24)"><rect width="6" height="6"/></g>
<g transform="translate(312,672) scale(4.24)"><rect width="6" height="6"/></g>
<g transform="translate(336,672) scale(4.24)"><rect width="6" height="6"/></g>
<g transform="translate(360,672) scale(4.24)"><rect width="6" height="6"/></g>
<g transform="translate(384,672) scale(4.24)"><rect width="6" height="6"/></g>
<g transform="translate(432,672) scale(4.24)"><rect width="6" height="6"/></g>
<g transform="translate(456,672) scale(4.24)"><rect width="6" height="6"/></g>
<g transform="translate(528,672) scale(4.24)"><rect width="6" height="6"/></g>
<g transform="translate(552,672) scale(4.24)"><rect width="6" height="6"/></g>
<g transform="translate(624,672) scale(4.24)"><rect width="6" height="6"/></g>
<g transform="translate(672,672) scale(4.24)"><rect width="6" height="6"/></g>
<g transform="translate(720,672) scale(4.24)"><rect width="6" height="6"/></g>
<g transform="translate(792,672) scale(4.24)"><rect width="6" height="6"/></g>
<g transform="translate(408,696) scale(4.24)"><rect width="6" height="6"/></g>
<g transform="translate(432,696) scale(4.24)"><rect width="6" height="6"/></g>
<g transform="translate(456,696) scale(4.24)"><rect width="6" height="6"/></g>
<g transform="translate(528,696) scale(4.24)"><rect width="6" height="6"/></g>
<g transform="translate(552,696) scale(4.24)"><rect width="6" height="6"/></g>
<g transform="translate(600,696) scale(4.24)"><rect width="6" height="6"/></g>
<g transform="translate(624,696) scale(4.24)"><rect width="6" height="6"/></g>
<g transform="translate(720,696) scale(4.24)"><rect width="6" height="6"/></g>
<g transform="translate(792,696) scale(4.24)"><rect width="6" height="6"/></g>
<g transform="translate(816,696) scale(4.24)"><rect width="6" height="6"/></g>
<g transform="translate(240,720) scale(4.24)"><rect width="6" height="6"/></g>
<g transform="translate(264,720) scale(4.24)"><rect width="6" height="6"/></g>
<g transform="translate(288,720) scale(4.24)"><rect width="6" height="6"/></g>
<g transform="translate(312,720) scale(4.24)"><rect width="6" height="6"/></g>
<g transform="translate(336,720) scale(4.24)"><rect width="6" height="6"/></g>
<g transform="translate(408,720) scale(4.24)"><rect width="6" height="6"/></g>
<g transform="translate(432,720) scale(4.24)"><rect width="6" height="6"/></g>
<g transform="translate(456,720) scale(4.24)"><rect width="6" height="6"/></g>
<g transform="translate(480,720) scale(4.24)"><rect width="6" height="6"/></g>
<g transform="translate(504,720) scale(4.24)"><rect width="6" height="6"/></g>
<g transform="translate(528,720) scale(4.24)"><rect width="6" height="6"/></g>
<g transform="translate(552,720) scale(4.24)"><rect width="6" height="6"/></g>
<g transform="translate(624,720) scale(4.24)"><rect width="6" height="6"/></g>
<g transform="translate(648,720) scale(4.24)"><rect width="6" height="6"/></g>
<g transform="translate(672,720) scale(4.24)"><rect width="6" height="6"/></g>
<g transform="translate(696,720) scale(4.24)"><rect width="6" height="6"/></g>
<g transform="translate(720,720) scale(4.24)"><rect width="6" height="6"/></g>
<g transform="translate(744,720) scale(4.24)"><rect width="6" height="6"/></g>
<g transform="translate(768,720) scale(4.24)"><rect width="6" height="6"/></g>
<g transform="translate(792,720) scale(4.24)"><rect width="6" height="6"/></g>
<g transform="translate(816,720) scale(4.24)"><rect width="6" height="6"/></g>
<g transform="translate(240,744) scale(4.24)"><rect width="6" height="6"/></g>
<g transform="translate(288,744) scale(4.24)"><rect width="6" height="6"/></g>
<g transform="translate(312,744) scale(4.24)"><rect width="6" height="6"/></g>
<g transform="translate(336,744) scale(4.24)"><rect width="6" height="6"/></g>
<g transform="translate(408,744) scale(4.24)"><rect width="6" height="6"/></g>
<g transform="translate(432,744) scale(4.24)"><rect width="6" height="6"/></g>
<g transform="translate(480,744) scale(4.24)"><rect width="6" height="6"/></g>
<g transform="translate(552,744) scale(4.24)"><rect width="6" height="6"/></g>
<g transform="translate(600,744) scale(4.24)"><rect width="6" height="6"/></g>
<g transform="translate(648,744) scale(4.24)"><rect width="6" height="6"/></g>
<g transform="translate(720,744) scale(4.24)"><rect width="6" height="6"/></g>
<g transform="translate(744,744) scale(4.24)"><rect width="6" height="6"/></g>
<g transform="translate(768,744) scale(4.24)"><rect width="6" height="6"/></g>
<g transform="translate(240,768) scale(4.24)"><rect width="6" height="6"/></g>
<g transform="translate(264,768) scale(4.24)"><rect width="6" height="6"/></g>
<g transform="translate(360,768) scale(4.24)"><rect width="6" height="6"/></g>
<g transform="translate(384,768) scale(4.24)"><rect width="6" height="6"/></g>
<g transform="translate(408,768) scale(4.24)"><rect width="6" height="6"/></g>
<g transform="translate(504,768) scale(4.24)"><rect width="6" height="6"/></g>
<g transform="translate(600,768) scale(4.24)"><rect width="6" height="6"/></g>
<g transform="translate(624,768) scale(4.24)"><rect width="6" height="6"/></g>
<g transform="translate(648,768) scale(4.24)"><rect width="6" height="6"/></g>
<g transform="translate(672,768) scale(4.24)"><rect width="6" height="6"/></g>
<g transform="translate(264,792) scale(4.24)"><rect width="6" height="6"/></g>
<g transform="translate(288,792) scale(4.24)"><rect width="6" height="6"/></g>
<g transform="translate(336,792) scale(4.24)"><rect width="6" height="6"/></g>
<g transform="translate(360,792) scale(4.24)"><rect width="6" height="6"/></g>
<g transform="translate(384,792) scale(4.24)"><rect width="6" height="6"/></g>
<g transform="translate(456,792) scale(4.24)"><rect width="6" height="6"/></g>
<g transform="translate(528,792) scale(4.24)"><rect width="6" height="6"/></g>
<g transform="translate(552,792) scale(4.24)"><rect width="6" height="6"/></g>
<g transform="translate(576,792) scale(4.24)"><rect width="6" height="6"/></g>
<g transform="translate(696,792) scale(4.24)"><rect width="6" height="6"/></g>
<g transform="translate(744,792) scale(4.24)"><rect width="6" height="6"/></g>
<g transform="translate(288,816) scale(4.24)"><rect width="6" height="6"/></g>
<g transform="translate(312,816) scale(4.24)"><rect width="6" height="6"/></g>
<g transform="translate(336,816) scale(4.24)"><rect width="6" height="6"/></g>
<g transform="translate(384,816) scale(4.24)"><rect width="6" height="6"/></g>
<g transform="translate(408,816) scale(4.24)"><rect width="6" height="6"/></g>
<g transform="translate(432,816) scale(4.24)"><rect width="6" height="6"/></g>
<g transform="translate(456,816) scale(4.24)"><rect width="6" height="6"/></g>
<g transform="translate(480,816) scale(4.24)"><rect width="6" height="6"/></g>
<g transform="translate(624,816) scale(4.24)"><rect width="6" height="6"/></g>
<g transform="translate(648,816) scale(4.24)"><rect width="6" height="6"/></g>
<g transform="translate(672,816) scale(4.24)"><rect width="6" height="6"/></g>
<g transform="translate(744,816) scale(4.24)"><rect width="6" height="6"/></g>
<g transform="translate(768,816) scale(4.24)"><rect width="6" height="6"/></g>
<g transform="translate(792,816) scale(4.24)"><rect width="6" height="6"/></g>
</g><g><g transform="translate(48,48)"  fill="#ededed"><g transform="scale(12)"><path d="M4.5,14h5.1C12,14,14,12,14,9.6V4.5C14,2,12,0,9.5,0H4.4C2,0,0,2,0,4.4v5.1C0,12,2,14,4.5,14z M12,4.8v4.4 c0,1.5-1.3,2.8-2.8,2.8H4.8C3.2,12,2,10.8,2,9.2V4.8C2,3.3,3.3,2,4.8,2h4.4C10.8,2,12,3.2,12,4.8z"/></g></g>
<g transform="translate(672,48)"  fill="#ededed"><g transform="scale(12)"><path d="M4.5,14h5.1C12,14,14,12,14,9.6V4.5C14,2,12,0,9.5,0H4.4C2,0,0,2,0,4.4v5.1C0,12,2,14,4.5,14z M12,4.8v4.4 c0,1.5-1.3,2.8-2.8,2.8H4.8C3.2,12,2,10.8,2,9.2V4.8C2,3.3,3.3,2,4.8,2h4.4C10.8,2,12,3.2,12,4.8z"/></g></g>
<g transform="translate(48,672)"  fill="#ededed"><g transform="scale(12)"><path d="M4.5,14h5.1C12,14,14,12,14,9.6V4.5C14,2,12,0,9.5,0H4.4C2,0,0,2,0,4.4v5.1C0,12,2,14,4.5,14z M12,4.8v4.4 c0,1.5-1.3,2.8-2.8,2.8H4.8C3.2,12,2,10.8,2,9.2V4.8C2,3.3,3.3,2,4.8,2h4.4C10.8,2,12,3.2,12,4.8z"/></g></g>
<g transform="translate(96,96)"  fill="#ededed"><g transform="scale(12)"><path d="M6,1.7v2.7C6,5.2,5.2,6,4.3,6H1.7C0.7,6,0,5.3,0,4.3V1.7C0,0.8,0.8,0,1.7,0h2.7C5.3,0,6,0.7,6,1.7z"/></g></g>
<g transform="translate(720,96)"  fill="#ededed"><g transform="scale(12)"><path d="M6,1.7v2.7C6,5.2,5.2,6,4.3,6H1.7C0.7,6,0,5.3,0,4.3V1.7C0,0.8,0.8,0,1.7,0h2.7C5.3,0,6,0.7,6,1.7z"/></g></g>
<g transform="translate(96,720)"  fill="#ededed"><g transform="scale(12)"><path d="M6,1.7v2.7C6,5.2,5.2,6,4.3,6H1.7C0.7,6,0,5.3,0,4.3V1.7C0,0.8,0.8,0,1.7,0h2.7C5.3,0,6,0.7,6,1.7z"/></g></g></g>
</svg>